<svg width="44" height="44" viewBox="0 0 44 44" fill="none" xmlns="http://www.w3.org/2000/svg">
<g id="nfa-logo-negative">
<g clip-path="url(#clip0_302_2954)">
<g id="Vector">
<path d="M4.15431 38.7507C2.10049 37.778 0.452972 36.0971 -0.84461 34.2582C-4.73618 28.6127 -5.07555 21.0978 -3.08279 14.7044C-3.09453 15.2639 -3.11567 15.8176 -3.14738 16.3689C-3.18026 17.7208 -3.21901 19.1313 -3.16851 20.4833C-3.02643 27.1706 -1.03719 34.2207 4.15548 38.7507H4.15431Z" fill="#0B0B0A"/>
<path d="M-2.45338 7.06428C-4.47197 2.8363 -3.94237 -3.24463 -0.804684 -6.81945C-0.644982 -6.98449 -0.465317 -7.17763 -0.298569 -7.33331C-2.19621 -2.54699 -2.52853 1.97128 -2.45338 7.06428Z" fill="#0B0B0A"/>
<path d="M0.893328 -6.2213C1.42293 -4.55212 1.8856 -2.7612 2.98472 -1.40338C3.62001 -0.603901 4.51364 0.144072 4.92464 1.16361C5.30158 2.03215 5.14423 3.09968 4.41617 3.72825C4.84714 1.84603 3.54486 1.1999 2.38584 0.0328708C0.731277 -1.5614 0.238079 -4.08976 0.893328 -6.2213Z" fill="#0B0B0A"/>
<path d="M5.59046 -0.836837C5.931 -2.45335 6.625 -3.92588 7.52685 -5.29892C7.89675 -5.80108 8.40051 -6.62046 9.14618 -6.57481C9.53604 -6.54086 9.83901 -6.25057 9.94704 -5.89238C10.0997 -5.35628 10.0128 -4.80847 10.0351 -4.28641C10.0152 -2.73545 10.5436 -1.39518 11.463 -0.135686C10.4191 -0.58049 9.57362 -1.46307 9.12387 -2.51656C8.88784 -3.055 8.76219 -3.63793 8.70113 -4.20213C8.64829 -4.6282 8.66707 -5.06364 8.60836 -5.45928C8.67882 -5.23805 9.03932 -5.09876 9.27065 -5.21932C9.24482 -5.20645 9.14853 -5.121 9.07338 -5.04374C7.85565 -3.69295 6.85398 -2.20285 5.5928 -0.836837H5.59046Z" fill="#0B0B0A"/>
<path d="M8.76102 0.918966C12.2768 0.169824 16.0251 0.353598 19.3894 1.66811C20.5109 2.11643 22.9111 3.07275 23.4055 4.21871C23.611 4.71385 23.3679 5.25463 22.9017 5.46416C22.5776 5.62101 22.3052 5.63272 22.0421 5.73806C22.1349 5.68773 22.196 5.55195 22.1995 5.45128V5.41617C22.196 5.38222 22.1913 5.38339 22.2018 5.40095C22.3298 5.62101 22.56 5.82703 22.7843 6.01665C25.0225 7.75139 28.0051 8.79667 30.7929 9.23211C31.7558 9.38077 32.7234 9.43462 33.7063 9.4194C34.4801 9.42525 35.2951 9.31054 36.0948 9.41589C37.087 9.54816 37.4922 10.4307 37.1681 11.352C36.6068 12.8912 35.0849 14.1226 33.6065 14.7219C32.5437 15.1492 31.4364 15.1972 30.3572 14.8226C28.2153 14.1378 25.9584 13.8827 23.6744 14.0278C25.6613 13.5959 27.7503 13.5725 29.7901 13.94C30.5392 14.0699 31.1933 14.2982 31.9167 14.2116C33.4926 13.9985 34.944 12.8924 35.7613 11.5533C35.9069 11.2876 36.029 11.0476 36.0455 10.7702C36.049 10.7363 36.0419 10.7175 36.0419 10.6953C36.0361 10.6824 36.0349 10.6684 36.0314 10.6695C36.0243 10.6625 36.0537 10.7035 36.049 10.6988C35.8317 10.6332 35.5546 10.6555 35.2622 10.6637C31.5186 11.023 27.9899 10.4307 24.6068 8.75102C23.51 8.18683 21.1039 6.86997 20.909 5.56014C20.835 5.04511 21.2342 4.61435 21.7051 4.4973C21.9329 4.42238 22.1936 4.39897 22.3569 4.33693C22.3698 4.33342 22.3569 4.33576 22.3193 4.37556C22.2817 4.41302 22.2465 4.50198 22.2418 4.55699C22.2441 4.6003 22.2383 4.62723 22.2547 4.65415C22.1044 4.39429 21.8214 4.20583 21.5607 4.00801C19.5245 2.65136 17.1736 1.73015 14.7663 1.25608C12.8111 0.866292 10.7526 0.803083 8.76102 0.917796V0.918966Z" fill="#0B0B0A"/>
<path d="M14.2214 6.24491C15.2701 6.23437 16.1191 6.32801 17.0996 6.35845C18.0813 6.40761 18.9279 6.38537 19.9754 6.47901C18.6508 8.30505 15.3992 8.15756 14.2214 6.24491Z" fill="#0B0B0A"/>
<path d="M2.83089 5.65964C4.26469 6.02367 5.50473 6.5867 6.81993 7.16495C8.12338 7.77129 9.36342 8.33197 10.5812 9.17125C7.80985 9.58093 4.34924 8.00539 2.83089 5.65964Z" fill="#0B0B0A"/>
<path d="M0.130044 11.8635C2.19091 12.9696 4.46784 13.837 6.82932 13.5022C8.00126 13.3384 9.09569 12.8315 10.2582 12.5482C12.3038 12.0297 14.4774 11.9969 16.5371 12.4265C17.3532 12.5986 18.1529 12.8303 18.9174 13.1499C16.4584 13.0656 14.1122 13.0797 11.7519 13.6029C10.1314 13.9096 8.63889 14.6833 6.97024 14.8226C4.36216 15.0298 1.82218 13.789 0.12887 11.8623L0.130044 11.8635Z" fill="#0B0B0A"/>
<path d="M16.1003 15.6092C18.5956 14.6915 21.2061 14.242 23.8811 14.4141C24.9109 14.5054 26.0171 14.7009 26.933 15.2826C27.1925 15.4523 27.4051 15.6104 27.6775 15.7415C28.4361 16.1406 29.3344 16.1043 30.0918 15.6724C30.3643 15.5237 30.6332 15.3435 30.8962 15.141C30.7518 15.4395 30.5674 15.7227 30.3373 15.9779C29.8652 16.514 29.1442 16.8898 28.4103 16.9155C27.8384 16.9483 27.2806 16.8078 26.7663 16.5796C26.3541 16.3747 25.9983 16.1851 25.5356 16.0798C24.9802 15.9369 24.3778 15.8655 23.7672 15.8129C21.2413 15.6139 18.6731 15.8023 16.1015 15.6092H16.1003Z" fill="#0B0B0A"/>
<path d="M17.8617 16.3115C16.112 17.6775 14.8743 19.7201 14.8062 21.9324C14.7135 24.1693 15.7186 26.2107 17.392 27.7828C16.2107 27.4585 15.1526 26.6368 14.4363 25.5716C12.1383 22.2684 13.8269 17.1531 17.8617 16.3115Z" fill="#0B0B0A"/>
<path d="M5.17946 19.1208C6.54162 21.5742 8.18914 23.7198 10.4402 25.3668C11.8635 26.4109 13.4441 27.201 15.1186 27.7816C15.7398 27.997 16.3786 28.1843 17.0385 28.3692C15.6846 28.5998 14.2731 28.4687 12.9285 28.0918C8.90545 26.9657 5.55758 23.323 5.17828 19.122L5.17946 19.1208Z" fill="#0B0B0A"/>
<path d="M3.77032 23.92C4.39739 27.2045 5.65152 30.3509 7.6842 33.008C9.49964 35.3573 11.8506 37.2512 14.5068 38.595C15.3194 39.0117 16.1649 39.3793 17.0397 39.7222C9.23425 39.2529 2.87199 31.6572 3.77032 23.92Z" fill="#0B0B0A"/>
<path d="M26.7862 17.7162C27.8537 18.8984 28.5124 20.6097 27.9124 22.1911C27.6587 22.897 27.0411 23.3886 26.872 24.0932C26.6007 25.1701 27.128 26.2365 27.6716 27.1483C27.9159 27.5592 28.1883 27.9701 28.4666 28.4055C28.8906 29.1043 29.5094 30.0677 28.9681 30.88C28.7074 31.2955 28.193 31.4571 27.7844 31.4746C27.2736 31.5203 26.7017 31.3681 26.2895 31.6163C25.8362 31.9393 26.0464 32.5422 25.8316 33.0268C25.6554 33.543 25.1399 33.9058 24.6197 34.003C23.1331 34.2699 21.3634 33.5769 20.0353 32.9928C21.0287 33.1181 22.0328 33.2726 23.025 33.2796C23.5053 33.2843 23.995 33.2503 24.3707 33.1134C24.9356 32.9203 24.8264 32.555 24.8475 32.0634C24.8452 31.1317 25.5779 30.3369 26.4974 30.2105C26.9917 30.1121 27.4274 30.1952 27.8537 30.0922C27.8701 30.0817 27.8396 30.0946 27.8173 30.1192C27.809 30.1262 27.8102 30.1391 27.8032 30.1449C27.7973 30.1519 27.7938 30.1613 27.7938 30.1718C27.7844 30.1765 27.7914 30.1906 27.7856 30.173C27.7057 29.8043 27.472 29.4906 27.27 29.1476C26.6195 28.1152 25.7834 26.8651 25.5897 25.5154C25.5028 24.929 25.545 24.3004 25.7482 23.7362C25.8527 23.4483 26.0042 23.1697 26.178 22.9332C26.4868 22.5072 26.8367 22.2274 27.0751 21.8048C27.7585 20.5453 27.3687 18.971 26.7862 17.715V17.7162Z" fill="#0B0B0A"/>
<path d="M18.3314 21.9301C19.8873 19.5609 24.022 19.6265 25.3771 22.1642C24.1371 21.8762 23.0884 21.6269 21.8801 21.6047C20.6729 21.5707 19.5902 21.7545 18.3314 21.9301Z" fill="#0B0B0A"/>
<path d="M22.7937 23.3347C22.2042 23.1533 21.664 23.0971 21.1321 23.3148C20.7821 23.4588 20.4169 23.6637 20.1985 23.9575C20.1856 23.9774 20.1856 23.9879 20.1985 23.9528C20.215 23.8954 20.2103 23.7713 20.1727 23.7116C20.1457 23.6438 20.1069 23.6285 20.121 23.6379C20.1316 23.6566 20.2197 23.714 20.3171 23.7585C20.7727 23.9539 21.3305 24.0769 21.8566 24.0605C22.1467 24.0534 22.4531 23.9984 22.796 23.92C22.6457 24.2384 22.3968 24.5064 22.0903 24.7113C21.2354 25.2872 19.447 25.3457 18.8904 24.2817C18.5604 23.5384 19.2039 22.8185 19.8204 22.52C20.8491 21.9652 22.3251 22.1876 22.7972 23.3347H22.7937Z" fill="#0B0B0A"/>
<path d="M22.3827 33.5769C23.2153 33.5442 24.5398 33.708 25.046 34.4548C25.2726 34.7908 25.1998 35.2941 24.898 35.5657C24.6021 35.8431 24.2815 35.9309 23.9879 36.0573C23.6415 36.213 23.2035 36.3195 23.2505 36.762C23.2857 37.1037 23.3303 37.6246 23.1777 37.9875C22.9745 38.5728 22.4273 39.0258 21.8543 39.137C22.1196 38.677 22.3005 38.2848 22.2688 37.8084C22.2394 37.4971 22.1255 37.3343 22.0269 36.9937C21.6887 35.8876 22.4989 35.0296 23.5194 34.751L23.9656 34.6175C24.0161 34.6035 24.0478 34.5848 24.0208 34.6175C23.9527 34.696 23.9128 34.8364 23.9363 34.9336C23.9433 34.971 23.9609 35.0108 23.9785 35.0284C23.9938 35.0413 23.9891 35.0296 23.9926 35.0202C23.9797 34.9909 23.9551 34.9464 23.9104 34.8996C23.4525 34.4174 22.8735 34.0627 22.3815 33.5769H22.3827Z" fill="#0B0B0A"/>
</g>
</g>
<rect x="0.5" y="0.5" width="43" height="43" rx="21.5" stroke="#0B0B0A"/>
</g>
<defs>
<clipPath id="clip0_302_2954">
<rect width="44" height="44" rx="22" fill="white"/>
</clipPath>
</defs>
</svg>
